<svg id="レイヤー_1" data-name="レイヤー 1" xmlns="http://www.w3.org/2000/svg" viewBox="0 0 1920 800"><path d="M675.53,379.68A10.08,10.08,0,1,1,662.06,375,10.08,10.08,0,0,1,675.53,379.68Zm-312-189.21A10.08,10.08,0,1,0,377,195.12,10.08,10.08,0,0,0,363.55,190.47Zm218.33,20.05a10.08,10.08,0,1,0,13.48,4.65A10.09,10.09,0,0,0,581.88,210.52ZM243.09,375.64a10.08,10.08,0,1,0,13.48,4.64A10.09,10.09,0,0,0,243.09,375.64Zm95-169.91a214.24,214.24,0,0,0-94.51,154,5.27,5.27,0,0,0,4.62,5.85,4.4,4.4,0,0,0,.62,0,5.28,5.28,0,0,0,5.24-4.66,203.67,203.67,0,0,1,89.86-146.39,5.28,5.28,0,0,0-5.83-8.8Zm327.1,162.82.54,0a5.29,5.29,0,0,0,4.72-5.79,215.7,215.7,0,0,0-58.9-127A5.27,5.27,0,0,0,604,243a205.25,205.25,0,0,1,56,120.79A5.28,5.28,0,0,0,665.19,368.55ZM571.9,203.35a214.28,214.28,0,0,0-178.66-23.81,5.27,5.27,0,0,0,3.14,10.07,203.75,203.75,0,0,1,169.88,22.65,5.18,5.18,0,0,0,2.81.82,5.27,5.27,0,0,0,2.83-9.73Zm-132.39,493c-163.65,23.39-315.27-90.32-338.66-254s90.32-315.28,254-338.67S670.1,194,693.49,357.65,603.17,672.93,439.51,696.32Zm140.28-330.2c-.23-5.77-3.22-20.48-9.84-29.59-3.17-4.36-6.59-6.58-10.16-6.58-17.66,0-53.51,20.33-58.13,33a2.66,2.66,0,0,1-3.71,1.47c-3.44-1.73-10.2-2.66-17.22-2.39-7.84.31-11.64,1.93-12.35,2.71.17,4.83,6.61,13,10.28,14a2.68,2.68,0,0,1,1.59,3.95l-2.36,4a2.68,2.68,0,0,1-3.24,1.14,10.26,10.26,0,0,0-2.34-.49c-1.07,1-3.93,6.05-3.93,18.62,0,13.93,3.46,29.92,30.45,29.92a2.83,2.83,0,0,1,.87.14c7,2.38,10.55,12,10.55,28.64,0,6.24-5.29,18.13-11.42,31.9-7.27,16.35-15.51,34.88-15.51,45.54,0,24.45,4.51,42.12,13.78,54a44.51,44.51,0,0,0,15.07,12.39,227.16,227.16,0,0,0,92.31-46.06c2.44-40.34-13.21-67.42-19.38-78.09-1-1.76-1.82-3.15-2.33-4.21-.71-1.47-2-3.82-3.65-6.79-7.22-13.09-19.31-35-19.31-48.94V411.05A2.68,2.68,0,0,1,565,410c4.69,4.22,10.51,3.92,13.59,1.09s2.56-7.08-1.19-11.6c-4.63-4.38-10.26-9.44-11.38-10.07a2.65,2.65,0,0,1-1.43-2.37c0-6.55.13-27.89.13-28.11a2.68,2.68,0,0,1,4.58-1.87A78.57,78.57,0,0,0,579.79,366.12Zm-183,99.32,40.39,24.84,67.45-32.87c-.56-6.63-2.11-14.4-6.26-16.22-13.31-.09-22.78-3.75-28.54-11.09A44.58,44.58,0,0,1,459,431.45,45.21,45.21,0,0,1,419.1,407.6a18.72,18.72,0,0,1-4.36.55,38.25,38.25,0,0,1-15.68-3c.07.68.15,1.4.24,2.15.77,6.75,1.72,15.14.87,20.34a49.11,49.11,0,0,1-2.48,8c-1.51,4.17-3.23,8.88-3.23,12A69.91,69.91,0,0,0,396.76,465.44ZM463,364.51c0-1.3.53-3.18,3.05-4.73s6.95-2.55,11.88-2.95a34.64,34.64,0,0,0-33.18-2.63c4.09,4.73,6.68,9.61,6.68,13.55,0,8.87-9.41,9.63-16.72,9.69-1.13,5.47,2.67,10.05,2.72,10.1a2.68,2.68,0,0,1,.38,2.86A40.26,40.26,0,0,1,428,403a35.15,35.15,0,0,0,37,17.85,49.72,49.72,0,0,1-2-14.93c0-11.92,3-24,8.85-24a11.77,11.77,0,0,1,1.72.13C468.22,378.28,463,370.15,463,364.51Zm30.92,129.83c4.43-10,8.66-19.48,10.26-25.57l-56.92,27.74,36.33,22.35C486.6,510.86,490.38,502.35,493.94,494.34Zm-83.33-8.59a52.54,52.54,0,0,1,6.06,9l.4.7a27.87,27.87,0,0,1,1.63,3.82l7.75-3.78ZM417,584.81a202.35,202.35,0,0,0,68.48,2c-5.05-11.65-7.54-26.41-7.54-44.72a50.43,50.43,0,0,1,2.36-13.44l-43.74-26.9L421.64,509c2.51,9.58,4.83,21.91,4.83,30.71C426.48,541.19,426.49,565.35,417,584.81ZM555,325l-76.74-47.18-54.88,26.75a319.15,319.15,0,0,1,3,35.65A56.8,56.8,0,0,1,437,346.86c.7-.39,1.39-.8,2.11-1.16a45.15,45.15,0,0,1,54.61,11.85,32.75,32.75,0,0,1,4.1,1c3.75-6.63,13-14.48,25.48-21.54C534.63,330.63,546.22,326.29,555,325Zm-184.54-23.9c-1.54.05-3.35.1-5.25.12L364,311.41C365.81,308.69,368.14,304.94,370.41,301.12Zm120.8,311.35c4.47-.64,8.88-1.42,13.24-2.3a50.06,50.06,0,0,1-11.58-10.8c-.69-.89-1.35-1.82-2-2.76a211.06,211.06,0,0,1-33.64,2.74q-9.69,0-19.45-.88a211.67,211.67,0,0,1-26.57-4.12,37.78,37.78,0,0,1-14.54,11.83A227.61,227.61,0,0,0,491.21,612.47ZM685.06,354c-17.85-124.91-133.58-211.7-258.49-193.85S214.86,293.71,232.71,418.62a227.47,227.47,0,0,0,42.15,103.14A174.39,174.39,0,0,1,277,501.85a216.82,216.82,0,0,1-13.12-23.19,214,214,0,0,1-20.15-67.84,5.27,5.27,0,1,1,10.47-1.29A203.8,203.8,0,0,0,273.33,474c2.07,4.24,4.3,8.38,6.64,12.44,3.77-16.65,8.55-30.38,10.5-34.82,4.23-9.6,9.53-21.93,13.61-31.43l-41.63-25.6a5,5,0,1,1,5.26-8.55l40.37,24.82c.89-2.08,1.62-3.76,2.1-4.87,2.51-5.78,7.71-24.71,9.57-32.76a47.51,47.51,0,0,1,6.06-13.75,194.44,194.44,0,0,1,13.58-14L266.3,381.12a4.94,4.94,0,0,1-2.19.51,5,5,0,0,1-2.21-9.53L330,338.9c-4.51-1.79-9-4.26-11.93-8s-2.5-7.18-1.5-9.24c3.83-7.83,20.73-10.39,26.12-10.39a44.3,44.3,0,0,1,11,1.69l1.34-11.9c-6.24-.42-8.19-1.39-9.21-2.42a3.5,3.5,0,0,1-.6-4c1-2.45,5.61-7,11.88-11.86l6.77-60a5,5,0,1,1,10,1.13L368.11,275c10.11-6.37,21.46-11.7,29.43-11.7h0c13,0,20,14.08,23.85,31l46.68-22.75-85-52.24a5,5,0,0,1,5.25-8.56l90.41,55.59,88.73-43.24a5,5,0,0,1,4.4,9l-83,40.44,77.84,47.86,9.46-83.73a5,5,0,0,1,10,1.13l-10,88.41L652,372.9a5,5,0,0,1-2.63,9.3,5,5,0,0,1-2.63-.75l-69-42.44c.54,1,1.06,2.12,1.57,3.28,3.86,8.84,5.88,19,5.88,24.43,0,4.72-1.93,5.71-3.54,5.71-2.46,0-6.33-2.71-10-5.81L569.91,382c0,1.37,0,2.65,0,3.7,3,2.31,8.64,7.58,11.25,10.05a2.09,2.09,0,0,1,.2.22c7,8.27,4.79,15.46.81,19.1s-10.26,4.7-16.21,2l-.78,6.9v.51a25.29,25.29,0,0,0,.27,3.37l82.24-40.08a5,5,0,0,1,4.4,9l-84.11,41c4,11.52,11.28,24.77,15.84,33,1.68,3,3,5.45,3.78,7,.43.88,1.19,2.19,2.15,3.86a144,144,0,0,1,16.92,41.54A202.55,202.55,0,0,0,629.81,493,205.94,205.94,0,0,0,660,404.61a5.28,5.28,0,0,1,10.5,1.05,216.59,216.59,0,0,1-31.75,93A213.68,213.68,0,0,1,609,536.07,140,140,0,0,1,610,557.63,228.25,228.25,0,0,0,685.06,354ZM1817,521.63c-1.33-.28-134.66-28.43-289-28.43-80.85,0-145.62,13.26-185.72,24.38-38.14,10.58-61.32,21-67.16,23.8-5.83-2.77-29-13.22-67.15-23.8-72.65-20.15-141.1-24.38-185.73-24.38-154.37,0-285.82,28.15-287.13,28.44l-2.51.54v52.33l4.06-1.15c.26-.07,27.28-7.64,72.93-15.12A1191,1191,0,0,1,999,543.13c80.16,0,142.73,8.21,181.11,15.09,36.1,6.48,58.13,13,63.46,14.7,2.5,4.82,12.15,20.58,31.57,20.58s29.08-15.76,31.58-20.58c5.33-1.67,27.36-8.22,63.46-14.7,38.38-6.88,100.95-15.09,181.11-15.09a1210,1210,0,0,1,190.35,15.11c46.12,7.48,73.61,15,73.88,15.13l4,1.12V522.17Zm-539.64,2.89c.89-.37,90.66-37.54,201.16-50.2a5.86,5.86,0,0,0-1.34-11.64c-102.41,11.73-187.32,44.23-202.08,50.11a781.75,781.75,0,0,0-82-26.78c-46.64-12.61-118-27.64-192.9-27.64-74.76,0-143.12,10.55-187.29,19.4-47.9,9.6-78.62,19.37-78.93,19.46a5.86,5.86,0,0,0,3.57,11.17c1.2-.39,121.4-38.31,262.65-38.31,73.56,0,143.73,14.78,189.64,27.18,49.85,13.47,82.68,27.11,83,27.25a5.93,5.93,0,0,0,4.53,0Zm544.58-20a5.85,5.85,0,0,0-3.94-7.29c-.81-.24-82.34-24.33-181.66-34.39a5.86,5.86,0,0,0-6.44,6.34,6.08,6.08,0,0,0,5.54,5.35c98,10,178.41,33.69,179.21,33.93a5.8,5.8,0,0,0,1.68.25A5.86,5.86,0,0,0,1822,504.49ZM861.08,346.89c0,20.53-.87,58.52-2,72.93-2.62,9.39-16.81,10.7-26.85,10.7-27.08,0-33.63-15.5-33.63-84.06.22-21.18,2-40.4,3.28-55.9.87-5.67,10.26-10.48,14.41-12.44-10.26-3.5-34.5-11.58-41.92-18.13-6.12,7.21-24.46,15.72-33.41,18.13,4.8,2.62,15.5,7.86,15.5,12.88,1.09,13.54-.22,37.34,0,60.92-1.53,76.63,7.43,86.68,69.87,86.68,26,0,54.81-2.84,78.39-3.93-1.09-22.49-1.09-54.37-1.09-79.48,0-21,.87-49.13,2.4-64.63,1.53-5.67,9.17-10.48,13.54-12.44-10.7-3.5-36-12.45-42.14-18.13-6.34,7.21-24.9,15.72-34.07,18.13,5,2.62,15.07,6.77,15.94,12.44C860.42,304.54,861.08,324.62,861.08,346.89Zm186.47,88.65c-1.09-20.52-.87-46.29-.65-64.85,0-48.47-5.9-58.29-41.71-58.29-15.28,0-27.94,3.93-40,10.48-9.61-4.15-20.09-10.48-24.24-14.41-6.55,7.2-19.43,18.12-28.6,20.74a53.18,53.18,0,0,1,15.06,10.92c2.62,21.61,1.75,67.25-.43,95.41h40.39c-1.75-17.68-1.09-70.09.22-96.07,1.53-10.7,12.88-14.85,21-14.85,12.66,0,19.65,4.15,19.65,48.91,0,18.56-.65,45.2-1.75,62Zm70.16-97.16c1.31-5.9,8.52-10.92,14-13.54-13.76-3.71-27.3-9.82-38.65-15.94-9.39,7-21.18,11.57-31.66,15.94,5.24,2.62,14.85,7.43,15.06,12.88,1.75,30.35.66,69.44-.87,97.6h41.92C1116.18,405,1116.4,370.26,1117.71,338.38Zm-24.23-36.25c10.48-7.86,20.74-13.75,33-19.87-11.58-5-23.59-12-33-17.68-8.74,6.33-21.18,14.19-30.57,17.68C1072.73,286.63,1085.62,295.37,1093.48,302.13Zm98.36-39.08c-21.4,7.64-35.15,10.7-54.8,15.07,6.33,3.05,8.51,5.67,10.7,10,2.4,31,2,110.48-.88,147.38h14.85c-2-22.05-1.09-100.44-1.09-130.79,7.86,22.49,34.72,100.44,43.89,132.1a115.92,115.92,0,0,1,37.77-7.42c1.53-19,30.57-98.47,40.17-127.08,0,32.32-.87,112.45-2.62,133.41h43.89c-1.74-45-2.18-103.49,1.09-141.71.44-4.8,8.3-11.79,12.67-13.53-16.38-5-29.7-12-41-18.13-9.83,6.77-23.15,13.76-34.06,16.82,6.77,3.93,9,5,11.13,7.86-8.73,37.12-24.89,82.31-37.55,114.41C1224.81,372.88,1204.94,314.58,1191.84,263.05Zm268,170.53c-.44-17.25-.44-29.7,0-50.22,1.53-57-6.77-70.53-43.89-71.18a140.35,140.35,0,0,0-55.68,10.48l3.28,21.4c8.73-12,20.74-21.4,40.17-21.4,15.07,0,17.69,18.78,17.47,37.33-52.62.88-77.73,8.52-77.73,40.18,0,25.55,11.35,36.46,37.56,36.46,11.79,0,28.16-2,40.17-12a75.6,75.6,0,0,1-.22,12.22Zm-65.07-8.3c-8.08,0-11.57-12-11.57-29,0-12.45,6.11-27.73,38.21-25.76.65,8.73.22,31.22-.44,39.95C1415.74,420.91,1406.35,425.28,1394.78,425.28Zm191.25-119c-2.83,3.06-12.66,8.3-17.9,9.39-9.61-2.18-24.24-3.27-34.94-3.27-22.7,0-55.89,11.13-55.89,56.77,0,66.15,43.67,62.44,57.42,62.44,3.5,0,16.38-2.84,21.4-6.55v19.65c0,13.76-3.06,22.93-14.85,29.48l2.84,4.15c32.75-8.3,51.75-21.84,51.75-46.29-.22-14.63-1.31-79.7.44-93.89,1.74-6.11,5.23-9,10.91-13.75C1600,319,1592.8,312.4,1586,306.28Zm-41.92,115.94c-19,0-27.95-15.5-27.95-52.4,0-30.57,8.95-48.25,27.08-48.25,5.67,0,11.57,2,12.88,7,.87,21.4.44,65.29.44,85.38C1553.72,419.38,1548,422.22,1544.11,422.22Zm133.81-83.84c1.31-5.9,8.51-10.92,14-13.54-13.75-3.71-27.29-9.82-38.64-15.94-9.39,7-21.18,11.57-31.67,15.94,5.25,2.62,14.85,7.43,15.07,12.88,1.75,30.35.66,69.44-.87,97.6h41.92C1676.39,405,1676.61,370.26,1677.92,338.38Zm-24.24-36.25c10.48-7.86,20.74-13.75,33-19.87-11.57-5-23.58-12-33-17.68-8.73,6.33-21.18,14.19-30.57,17.68C1632.94,286.63,1645.82,295.37,1653.68,302.13Zm158.44,123.81a49.57,49.57,0,0,1-17.47,3.27c-15.29,0-54.59-1.31-54.59-57.21,0-16.59,4.37-50.65,29-50.65,13.32,0,18.78,7.42,24.67,22.71a113.42,113.42,0,0,1,22.49-15.72c-5.24-7.21-10-12.89-13.53-21-2.41,2.84-12.67,7-16.82,7-5.24-.87-12.22-2.62-22.92-2.62-40.39,0-62.23,21.62-62.23,61.57,0,59.18,50,63.54,79.7,63.54,8.51,0,19.65-.43,29.47-1.31Z"/></svg>